<mxfile host="app.diagrams.net" modified="2021-12-27T08:15:08.949Z" agent="5.0 (Windows NT 10.0; WOW64) AppleWebKit/537.36 (KHTML, like Gecko) Chrome/96.0.4664.110 Safari/537.36" etag="yh638qCJaExGz4YPHma6" version="15.9.1" type="github">
  <diagram id="hsV3mPpWiQRewYDvEaFW" name="Page-1">
    <mxGraphModel dx="594" dy="339" grid="1" gridSize="10" guides="1" tooltips="1" connect="1" arrows="1" fold="1" page="1" pageScale="1" pageWidth="850" pageHeight="1100" math="0" shadow="0">
      <root>
        <mxCell id="0" />
        <mxCell id="1" parent="0" />
        <mxCell id="mNVOfgShqn3i6FoZdCp2-2" value="&lt;span style=&quot;color: rgb(51 , 51 , 51) ; font-family: &amp;#34;aspira&amp;#34; , &amp;#34;helvetica&amp;#34; , &amp;#34;arial&amp;#34; , sans-serif ; font-size: 14px ; background-color: rgb(255 , 255 , 255)&quot;&gt;Video-Rental LTD&lt;/span&gt;" style="rounded=0;whiteSpace=wrap;html=1;" vertex="1" parent="1">
          <mxGeometry x="335" y="280" width="180" height="70" as="geometry" />
        </mxCell>
        <mxCell id="mNVOfgShqn3i6FoZdCp2-4" value="Customer" style="ellipse;whiteSpace=wrap;html=1;" vertex="1" parent="1">
          <mxGeometry x="30" y="275" width="120" height="80" as="geometry" />
        </mxCell>
        <mxCell id="mNVOfgShqn3i6FoZdCp2-5" value="Supplier" style="ellipse;whiteSpace=wrap;html=1;" vertex="1" parent="1">
          <mxGeometry x="690" y="275" width="120" height="80" as="geometry" />
        </mxCell>
        <mxCell id="mNVOfgShqn3i6FoZdCp2-7" value="" style="endArrow=classic;html=1;rounded=0;entryX=0.958;entryY=0.99;entryDx=0;entryDy=0;entryPerimeter=0;" edge="1" parent="1" source="mNVOfgShqn3i6FoZdCp2-5" target="mNVOfgShqn3i6FoZdCp2-2">
          <mxGeometry width="50" height="50" relative="1" as="geometry">
            <mxPoint x="570" y="420" as="sourcePoint" />
            <mxPoint x="480" y="350" as="targetPoint" />
            <Array as="points">
              <mxPoint x="630" y="410" />
            </Array>
          </mxGeometry>
        </mxCell>
        <mxCell id="mNVOfgShqn3i6FoZdCp2-8" value="videos&amp;nbsp;&lt;br&gt;purchased" style="text;html=1;align=center;verticalAlign=middle;resizable=0;points=[];autosize=1;strokeColor=none;fillColor=default;" vertex="1" parent="1">
          <mxGeometry x="590" y="390" width="70" height="30" as="geometry" />
        </mxCell>
        <mxCell id="mNVOfgShqn3i6FoZdCp2-10" value="" style="endArrow=classic;html=1;rounded=0;exitX=1;exitY=1;exitDx=0;exitDy=0;" edge="1" parent="1" source="mNVOfgShqn3i6FoZdCp2-2">
          <mxGeometry width="50" height="50" relative="1" as="geometry">
            <mxPoint x="620" y="390" as="sourcePoint" />
            <mxPoint x="700" y="330" as="targetPoint" />
            <Array as="points">
              <mxPoint x="620" y="360" />
            </Array>
          </mxGeometry>
        </mxCell>
        <mxCell id="mNVOfgShqn3i6FoZdCp2-11" value="Payment" style="text;html=1;align=center;verticalAlign=middle;resizable=0;points=[];autosize=1;strokeColor=none;fillColor=default;" vertex="1" parent="1">
          <mxGeometry x="590" y="350" width="60" height="20" as="geometry" />
        </mxCell>
        <mxCell id="mNVOfgShqn3i6FoZdCp2-12" value="" style="endArrow=classic;html=1;rounded=0;exitX=1;exitY=0.75;exitDx=0;exitDy=0;entryX=0;entryY=0.5;entryDx=0;entryDy=0;" edge="1" parent="1" source="mNVOfgShqn3i6FoZdCp2-2" target="mNVOfgShqn3i6FoZdCp2-5">
          <mxGeometry width="50" height="50" relative="1" as="geometry">
            <mxPoint x="580" y="340" as="sourcePoint" />
            <mxPoint x="630" y="290" as="targetPoint" />
          </mxGeometry>
        </mxCell>
        <mxCell id="mNVOfgShqn3i6FoZdCp2-13" value="Order" style="text;html=1;align=center;verticalAlign=middle;resizable=0;points=[];autosize=1;strokeColor=none;fillColor=default;" vertex="1" parent="1">
          <mxGeometry x="590" y="320" width="50" height="20" as="geometry" />
        </mxCell>
        <mxCell id="mNVOfgShqn3i6FoZdCp2-14" value="" style="endArrow=classic;html=1;rounded=0;entryX=1;entryY=0.25;entryDx=0;entryDy=0;exitX=0.027;exitY=0.275;exitDx=0;exitDy=0;exitPerimeter=0;" edge="1" parent="1" source="mNVOfgShqn3i6FoZdCp2-5" target="mNVOfgShqn3i6FoZdCp2-2">
          <mxGeometry width="50" height="50" relative="1" as="geometry">
            <mxPoint x="540" y="300" as="sourcePoint" />
            <mxPoint x="590" y="250" as="targetPoint" />
            <Array as="points">
              <mxPoint x="600" y="260" />
            </Array>
          </mxGeometry>
        </mxCell>
        <mxCell id="mNVOfgShqn3i6FoZdCp2-15" value="Available&lt;br&gt;titles" style="text;html=1;align=center;verticalAlign=middle;resizable=0;points=[];autosize=1;strokeColor=none;fillColor=default;" vertex="1" parent="1">
          <mxGeometry x="580" y="245" width="60" height="30" as="geometry" />
        </mxCell>
        <mxCell id="mNVOfgShqn3i6FoZdCp2-16" value="" style="endArrow=classic;html=1;rounded=0;entryX=-0.004;entryY=0.182;entryDx=0;entryDy=0;entryPerimeter=0;exitX=0.921;exitY=0.222;exitDx=0;exitDy=0;exitPerimeter=0;" edge="1" parent="1" source="mNVOfgShqn3i6FoZdCp2-4" target="mNVOfgShqn3i6FoZdCp2-2">
          <mxGeometry width="50" height="50" relative="1" as="geometry">
            <mxPoint x="150" y="300" as="sourcePoint" />
            <mxPoint x="260" y="330" as="targetPoint" />
            <Array as="points">
              <mxPoint x="220" y="280" />
            </Array>
          </mxGeometry>
        </mxCell>
        <mxCell id="mNVOfgShqn3i6FoZdCp2-17" value="" style="endArrow=classic;html=1;rounded=0;exitX=1;exitY=0.5;exitDx=0;exitDy=0;entryX=0.004;entryY=0.428;entryDx=0;entryDy=0;entryPerimeter=0;" edge="1" parent="1" source="mNVOfgShqn3i6FoZdCp2-4" target="mNVOfgShqn3i6FoZdCp2-2">
          <mxGeometry width="50" height="50" relative="1" as="geometry">
            <mxPoint x="210" y="380" as="sourcePoint" />
            <mxPoint x="260" y="330" as="targetPoint" />
          </mxGeometry>
        </mxCell>
        <mxCell id="mNVOfgShqn3i6FoZdCp2-18" value="" style="endArrow=classic;html=1;rounded=0;exitX=0.777;exitY=0.066;exitDx=0;exitDy=0;exitPerimeter=0;entryX=0;entryY=0;entryDx=0;entryDy=0;" edge="1" parent="1" source="mNVOfgShqn3i6FoZdCp2-4" target="mNVOfgShqn3i6FoZdCp2-2">
          <mxGeometry width="50" height="50" relative="1" as="geometry">
            <mxPoint x="210" y="380" as="sourcePoint" />
            <mxPoint x="260" y="330" as="targetPoint" />
            <Array as="points">
              <mxPoint x="170" y="240" />
            </Array>
          </mxGeometry>
        </mxCell>
        <mxCell id="mNVOfgShqn3i6FoZdCp2-19" value="" style="endArrow=classic;html=1;rounded=0;exitX=0.5;exitY=0;exitDx=0;exitDy=0;entryX=0.211;entryY=0.014;entryDx=0;entryDy=0;entryPerimeter=0;" edge="1" parent="1" source="mNVOfgShqn3i6FoZdCp2-4" target="mNVOfgShqn3i6FoZdCp2-2">
          <mxGeometry width="50" height="50" relative="1" as="geometry">
            <mxPoint x="210" y="380" as="sourcePoint" />
            <mxPoint x="260" y="330" as="targetPoint" />
            <Array as="points">
              <mxPoint x="110" y="210" />
              <mxPoint x="290" y="230" />
            </Array>
          </mxGeometry>
        </mxCell>
        <mxCell id="mNVOfgShqn3i6FoZdCp2-20" value="" style="endArrow=classic;html=1;rounded=0;exitX=0.392;exitY=0.98;exitDx=0;exitDy=0;exitPerimeter=0;entryX=0.414;entryY=1;entryDx=0;entryDy=0;entryPerimeter=0;" edge="1" parent="1" source="mNVOfgShqn3i6FoZdCp2-4" target="mNVOfgShqn3i6FoZdCp2-2">
          <mxGeometry width="50" height="50" relative="1" as="geometry">
            <mxPoint x="210" y="380" as="sourcePoint" />
            <mxPoint x="260" y="330" as="targetPoint" />
            <Array as="points">
              <mxPoint x="150" y="450" />
            </Array>
          </mxGeometry>
        </mxCell>
        <mxCell id="mNVOfgShqn3i6FoZdCp2-21" value="" style="endArrow=classic;html=1;rounded=0;exitX=0.007;exitY=0.615;exitDx=0;exitDy=0;entryX=0.949;entryY=0.704;entryDx=0;entryDy=0;entryPerimeter=0;exitPerimeter=0;" edge="1" parent="1" source="mNVOfgShqn3i6FoZdCp2-2" target="mNVOfgShqn3i6FoZdCp2-4">
          <mxGeometry width="50" height="50" relative="1" as="geometry">
            <mxPoint x="210" y="380" as="sourcePoint" />
            <mxPoint x="260" y="330" as="targetPoint" />
            <Array as="points">
              <mxPoint x="210" y="340" />
            </Array>
          </mxGeometry>
        </mxCell>
        <mxCell id="mNVOfgShqn3i6FoZdCp2-22" value="" style="endArrow=classic;html=1;rounded=0;exitX=0;exitY=0.911;exitDx=0;exitDy=0;exitPerimeter=0;entryX=0.817;entryY=0.928;entryDx=0;entryDy=0;entryPerimeter=0;" edge="1" parent="1" source="mNVOfgShqn3i6FoZdCp2-2" target="mNVOfgShqn3i6FoZdCp2-4">
          <mxGeometry width="50" height="50" relative="1" as="geometry">
            <mxPoint x="210" y="380" as="sourcePoint" />
            <mxPoint x="260" y="330" as="targetPoint" />
            <Array as="points">
              <mxPoint x="200" y="370" />
            </Array>
          </mxGeometry>
        </mxCell>
        <mxCell id="mNVOfgShqn3i6FoZdCp2-23" value="" style="endArrow=classic;html=1;rounded=0;exitX=0.111;exitY=1.009;exitDx=0;exitDy=0;exitPerimeter=0;entryX=0.633;entryY=1.015;entryDx=0;entryDy=0;entryPerimeter=0;" edge="1" parent="1" source="mNVOfgShqn3i6FoZdCp2-2" target="mNVOfgShqn3i6FoZdCp2-4">
          <mxGeometry width="50" height="50" relative="1" as="geometry">
            <mxPoint x="210" y="380" as="sourcePoint" />
            <mxPoint x="260" y="330" as="targetPoint" />
            <Array as="points">
              <mxPoint x="190" y="400" />
            </Array>
          </mxGeometry>
        </mxCell>
        <mxCell id="mNVOfgShqn3i6FoZdCp2-24" value="payment&lt;br&gt;" style="text;html=1;align=center;verticalAlign=middle;resizable=0;points=[];autosize=1;fillColor=default;" vertex="1" parent="1">
          <mxGeometry x="150" y="235" width="60" height="20" as="geometry" />
        </mxCell>
        <mxCell id="mNVOfgShqn3i6FoZdCp2-28" value="Customer&lt;br&gt;details" style="text;html=1;align=center;verticalAlign=middle;resizable=0;points=[];autosize=1;strokeColor=none;fillColor=default;" vertex="1" parent="1">
          <mxGeometry x="95" y="190" width="70" height="30" as="geometry" />
        </mxCell>
        <mxCell id="mNVOfgShqn3i6FoZdCp2-29" value="return of video" style="text;html=1;align=center;verticalAlign=middle;resizable=0;points=[];autosize=1;strokeColor=none;fillColor=default;" vertex="1" parent="1">
          <mxGeometry x="165" y="275" width="90" height="20" as="geometry" />
        </mxCell>
        <mxCell id="mNVOfgShqn3i6FoZdCp2-31" value="membership card&lt;br&gt;" style="text;html=1;align=center;verticalAlign=middle;resizable=0;points=[];autosize=1;strokeColor=none;fillColor=default;" vertex="1" parent="1">
          <mxGeometry x="165" y="305" width="110" height="20" as="geometry" />
        </mxCell>
        <mxCell id="mNVOfgShqn3i6FoZdCp2-32" value="membership card&lt;br&gt;" style="text;html=1;align=center;verticalAlign=middle;resizable=0;points=[];autosize=1;strokeColor=none;fillColor=default;" vertex="1" parent="1">
          <mxGeometry x="165" y="330" width="110" height="20" as="geometry" />
        </mxCell>
        <mxCell id="mNVOfgShqn3i6FoZdCp2-43" value="video loan&lt;br&gt;" style="text;html=1;align=center;verticalAlign=middle;resizable=0;points=[];autosize=1;strokeColor=none;fillColor=default;" vertex="1" parent="1">
          <mxGeometry x="165" y="360" width="70" height="20" as="geometry" />
        </mxCell>
        <mxCell id="mNVOfgShqn3i6FoZdCp2-44" value="overdue&lt;br&gt;reminder" style="text;html=1;align=center;verticalAlign=middle;resizable=0;points=[];autosize=1;strokeColor=none;fillColor=default;" vertex="1" parent="1">
          <mxGeometry x="160" y="390" width="60" height="30" as="geometry" />
        </mxCell>
        <mxCell id="mNVOfgShqn3i6FoZdCp2-45" value="request for video&lt;br&gt;" style="text;html=1;align=center;verticalAlign=middle;resizable=0;points=[];autosize=1;strokeColor=none;fillColor=default;" vertex="1" parent="1">
          <mxGeometry x="120" y="430" width="100" height="20" as="geometry" />
        </mxCell>
      </root>
    </mxGraphModel>
  </diagram>
</mxfile>
